<?xml version="1.0" encoding="utf-8"?>
<!-- Generator: Adobe Illustrator 28.0.0, SVG Export Plug-In . SVG Version: 6.00 Build 0)  -->
<svg version="1.1" id="图层_1" xmlns="http://www.w3.org/2000/svg" xmlns:xlink="http://www.w3.org/1999/xlink" x="0px" y="0px"
	 viewBox="0 0 200 200" style="enable-background:new 0 0 200 200;" xml:space="preserve">
<style type="text/css">
	.st0{fill:#FFFFFF;stroke:#FFFFFF;stroke-width:0.1953;stroke-miterlimit:10;}
</style>
<path class="st0" d="M171.4,0H28.6C12.8,0,0,12.8,0,28.6v142.9C0,187.2,12.8,200,28.6,200h142.9c15.8,0,28.6-12.8,28.6-28.6V28.6
	C200,12.8,187.2,0,171.4,0z M104.7,140.2c-2.3,1.3-4.3,2-6,2c-1,0-2.5-0.5-4.5-1.5s-3.2-3.2-3.5-6.8c-0.3-3.5,0.7-5.9,3-7.2
	c2.3-1.3,4.2-2,5.5-2c1.3,0,3.1,0.6,5.2,1.8c2.2,1.2,3.3,3.4,3.5,6.8C108.1,136.6,107,138.9,104.7,140.2z M121.2,77.7
	c-0.7,5.3-4.1,10.8-10.2,16.2c-6.2,5.5-9.8,13.6-10.8,24.2c-2.3-0.7-3.5-3.8-3.5-9.5c0-5.7,2.5-11.3,7.5-17c4.7-5.7,7.3-10.3,8-14
	c0.7-3.7-0.3-7.4-3-11.2c-2.7-3.8-5.9-5.7-9.8-5.5c-3.8,0.2-7.1,1.4-9.8,3.8c-2.7,2.3-4.2,4.2-4.5,5.8c-0.3,1.5,0.3,2.6,2,3.2
	c1.3,1,2,2.3,2,4c0,1.7-0.4,3-1.2,4c-0.8,1-2.1,1.5-3.8,1.5c-1.7,0-3.1-0.8-4.2-2.2c-1.2-1.5-1.5-3.8-1-7c0.5-3.2,2.3-6.3,5.5-9.5
	c3.2-3.2,6.7-5.2,10.5-6c3.8-0.8,7.5-0.9,11-0.2c3.5,0.7,7.1,2.8,10.8,6.2C120.3,68,121.8,72.4,121.2,77.7z"/>
</svg>
