<?xml version="1.0" encoding="utf-8"?>
<svg version="1.1" xmlns="http://www.w3.org/2000/svg" xmlns:xlink="http://www.w3.org/1999/xlink" x="0px" y="0px"
	 viewBox="0 0 200 200" style="enable-background:new 0 0 200 200;" xml:space="preserve">
<style type="text/css">
	.st0{fill:#FFFFFF;stroke:#FFFFFF;stroke-width:0.1953;stroke-miterlimit:10;}
</style>
<path class="st0" d="M0,28.6C0,12.8,12.8,0,28.6,0h142.9C187.2,0,200,12.8,200,28.6v142.9c0,15.8-12.8,28.6-28.6,28.6H28.6
	C12.8,200,0,187.2,0,171.4V28.6z M157.1,142.9c0-7.9-6.4-14.3-14.3-14.3s-14.3,6.4-14.3,14.3s6.4,14.3,14.3,14.3
	S157.1,150.7,157.1,142.9z M57.1,71.4c7.9,0,14.3-6.4,14.3-14.3S65,42.9,57.1,42.9s-14.3,6.4-14.3,14.3S49.3,71.4,57.1,71.4z"/>
</svg>
