<?xml version="1.0" encoding="UTF-8"?>
<svg xmlns="http://www.w3.org/2000/svg" width="103.83" height="86.47" viewBox="0 0 103.83 86.47">
  <defs>
    <style>
      .cls-1 {
        fill: #aca0f3;
        fill-rule: evenodd;
        stroke-width: 0px;
      }
    </style>
  </defs>
  <g>
    <path class="cls-1" d="m41.44,65.84c-5.94,9.11-15.9,20.63-29.15,20.63C6.02,86.47,0,83.89,0,72.69,0,44.16,38.95,0,75.08,0c20.56,0,28.75,14.26,28.75,30.46,0,20.79-13.49,44.56-26.9,44.56-4.26,0-6.34-2.34-6.34-6.04,0-.97.16-2.01.48-3.14-4.58,7.82-13.41,15.07-21.68,15.07-6.02,0-9.07-3.79-9.07-9.11,0-1.93.4-3.95,1.12-5.96Zm26.82-43.9c-3.27,0-5.5,2.78-5.49,6.75,0,3.96,2.25,6.82,5.52,6.81,3.19,0,5.42-2.86,5.41-6.83,0-3.96-2.25-6.74-5.44-6.73Zm17.35-.02c-3.27,0-5.5,2.78-5.49,6.75,0,3.96,2.25,6.82,5.52,6.81,3.19,0,5.42-2.86,5.41-6.83,0-3.96-2.25-6.74-5.44-6.73Z"/>
  </g>
</svg>